<?xml version="1.0" encoding="iso-8859-1"?>
<!-- Generator: Adobe Illustrator 16.0.0, SVG Export Plug-In . SVG Version: 6.00 Build 0)  -->
<!DOCTYPE svg PUBLIC "-//W3C//DTD SVG 1.1//EN" "http://www.w3.org/Graphics/SVG/1.1/DTD/svg11.dtd">
<svg version="1.1" id="Capa_1" xmlns="http://www.w3.org/2000/svg" xmlns:xlink="http://www.w3.org/1999/xlink" x="0px" y="0px"
	 width="473.553px" height="473.553px" viewBox="0 0 473.553 473.553" style="enable-background:new 0 0 473.553 473.553;"
	 xml:space="preserve">
<g>
	<g>
		<rect x="213.984" y="116.636" width="45.583" height="43.05"/>
		<path d="M320.242,32.334C320.242,14.483,305.769,0,287.914,0h-12.362v41.611h44.69V32.334z"/>
		<rect x="275.552" y="116.636" width="44.69" height="43.05"/>
		<rect x="213.984" width="45.583" height="41.611"/>
		<rect x="275.552" y="57.603" width="44.69" height="43.055"/>
		<rect x="213.984" y="57.603" width="45.583" height="43.055"/>
		<path d="M320.242,181.976v-8.624H153.308v8.624c-0.002,0.067-0.022,0.124-0.022,0.192c0,0.152,0.021,0.299,0.022,0.451v0.618
			c0,0.432,0.074,0.844,0.096,1.269c0.016,0.199,0.023,0.398,0.044,0.596c0.339,4.335,1.787,8.346,4.132,11.719
			c3.591,5.621,9.18,9.811,15.768,11.619l16.814,216.48c0.357,10.834,7.883,19.828,17.996,22.417
			c0.003,0.011,0.052,0.088,0.066,0.119c1.311,14.627,13.589,26.097,28.551,26.097c14.971,0,27.242-11.47,28.551-26.095
			c0.019-0.032,0.063-0.11,0.067-0.121c10.119-2.589,17.64-11.583,18.002-22.417l16.808-216.48
			c6.589-1.808,12.178-5.998,15.768-11.619c2.347-3.374,3.794-7.384,4.134-11.719c0.02-0.198,0.026-0.396,0.044-0.596
			c0.021-0.424,0.095-0.837,0.095-1.269v-0.618c0.002-0.152,0.023-0.299,0.023-0.451C320.265,182.1,320.244,182.042,320.242,181.976
			z M236.775,302.941c-17.442,0-31.588-16.721-31.588-37.348c0-20.626,14.146-37.347,31.588-37.347
			c17.451,0,31.589,16.721,31.589,37.347C268.364,286.221,254.226,302.941,236.775,302.941z"/>
		<path d="M198,0h-12.363c-17.854,0-32.328,14.484-32.328,32.334v9.277H198V0L198,0z"/>
		<rect x="153.308" y="116.636" width="44.691" height="43.05"/>
		<rect x="153.308" y="57.603" width="44.691" height="43.055"/>
		<ellipse cx="236.786" cy="265.595" rx="15.195" ry="17.966"/>
	</g>
</g>
<g>
</g>
<g>
</g>
<g>
</g>
<g>
</g>
<g>
</g>
<g>
</g>
<g>
</g>
<g>
</g>
<g>
</g>
<g>
</g>
<g>
</g>
<g>
</g>
<g>
</g>
<g>
</g>
<g>
</g>
</svg>
