<?xml version="1.0" encoding="iso-8859-1"?>
<!-- Generator: Adobe Illustrator 16.0.0, SVG Export Plug-In . SVG Version: 6.00 Build 0)  -->
<!DOCTYPE svg PUBLIC "-//W3C//DTD SVG 1.1//EN" "http://www.w3.org/Graphics/SVG/1.1/DTD/svg11.dtd">
<svg version="1.1" id="Capa_1" xmlns="http://www.w3.org/2000/svg" xmlns:xlink="http://www.w3.org/1999/xlink" x="0px" y="0px"
	 width="482.063px" height="482.062px" viewBox="0 0 482.063 482.062" style="enable-background:new 0 0 482.063 482.062;"
	 xml:space="preserve">
<g>
	<g>
		<path d="M313.815,0H168.247c-16.074,0-29.11,13.036-29.11,29.119v145.566c0,16.074,12.596,29.112,28.67,29.112h6.573
			l17.656,227.27c0.373,11.361,8.265,20.791,18.871,23.506c0,0.012,0.056,0.092,0.068,0.125
			c1.372,15.338,14.25,27.365,29.938,27.365c15.697,0,28.565-12.027,29.939-27.361c0.02-0.033,0.064-0.117,0.068-0.127
			c10.613-2.715,18.499-12.146,18.878-23.506l17.646-227.271h6.37c16.081,0,29.111-13.038,29.111-29.112V29.118
			C342.926,13.035,329.895,0,313.815,0z M263.153,159.529c0,11.705-9.483,21.188-21.185,21.188s-21.186-9.483-21.186-21.188
			c0-11.69,9.484-21.184,21.186-21.184C253.669,138.345,263.153,147.839,263.153,159.529z M240.938,123.333
			c-11.705,0-21.189-9.482-21.189-21.184c0-11.703,9.484-21.191,21.189-21.191c11.702,0,21.186,9.488,21.186,21.191
			C262.124,113.851,252.64,123.333,240.938,123.333z M240.01,23.578c11.697,0,21.18,9.49,21.18,21.19
			c0,11.694-9.482,21.181-21.18,21.181c-11.706,0-21.189-9.487-21.189-21.181C218.821,33.068,228.304,23.578,240.01,23.578z
			 M182.703,23.81c11.702,0,21.186,9.491,21.186,21.19c0,11.694-9.483,21.181-21.186,21.181c-11.701,0-21.183-9.487-21.183-21.181
			C161.52,33.3,171.003,23.81,182.703,23.81z M183.641,81.19c11.701,0,21.184,9.489,21.184,21.192
			c0,11.701-9.482,21.183-21.184,21.183s-21.192-9.482-21.192-21.183C162.449,90.679,171.939,81.19,183.641,81.19z M184.671,180.949
			c-11.702,0-21.189-9.483-21.189-21.188c0-11.69,9.487-21.184,21.189-21.184c11.701,0,21.187,9.494,21.187,21.184
			C205.858,171.466,196.371,180.949,184.671,180.949z M241.392,303.16c-18.289,0-33.124-17.531-33.124-39.16
			s14.835-39.163,33.124-39.163c18.3,0,33.124,17.534,33.124,39.163S259.692,303.16,241.392,303.16z M297.483,23.631
			c11.7,0,21.187,9.491,21.187,21.189c0,11.695-9.486,21.182-21.187,21.182c-11.695,0-21.182-9.487-21.182-21.182
			C276.301,33.122,285.788,23.631,297.483,23.631z M298.417,81.01c11.699,0,21.189,9.489,21.189,21.192
			c0,11.7-9.49,21.183-21.189,21.183c-11.7,0-21.188-9.482-21.188-21.183C277.229,90.5,286.717,81.01,298.417,81.01z
			 M299.448,180.771c-11.701,0-21.185-9.484-21.185-21.188c0-11.691,9.483-21.185,21.185-21.185c11.7,0,21.191,9.494,21.191,21.185
			C320.639,171.287,311.148,180.771,299.448,180.771z"/>
		<ellipse cx="240.924" cy="263.999" rx="15.934" ry="18.839"/>
	</g>
</g>
<g>
</g>
<g>
</g>
<g>
</g>
<g>
</g>
<g>
</g>
<g>
</g>
<g>
</g>
<g>
</g>
<g>
</g>
<g>
</g>
<g>
</g>
<g>
</g>
<g>
</g>
<g>
</g>
<g>
</g>
</svg>
