<?xml version="1.0" encoding="iso-8859-1"?>
<!-- Generator: Adobe Illustrator 16.0.0, SVG Export Plug-In . SVG Version: 6.00 Build 0)  -->
<!DOCTYPE svg PUBLIC "-//W3C//DTD SVG 1.1//EN" "http://www.w3.org/Graphics/SVG/1.1/DTD/svg11.dtd">
<svg version="1.1" id="Capa_1" xmlns="http://www.w3.org/2000/svg" xmlns:xlink="http://www.w3.org/1999/xlink" x="0px" y="0px"
	 width="471.706px" height="471.706px" viewBox="0 0 471.706 471.706" style="enable-background:new 0 0 471.706 471.706;"
	 xml:space="preserve">
<g>
	<g>
		<ellipse cx="235.863" cy="263.751" rx="15.197" ry="17.965"/>
		<path d="M272.15,87.369h68.537V59.907h-67.444c-8.598,0-15.564-6.967-15.564-15.554c0-8.591,6.968-15.558,15.564-15.558h67.423
			C340.45,12.859,327.472,0,311.489,0H160.215c-15.982,0-28.96,12.859-29.176,28.794h67.424c8.598,0,15.564,6.967,15.564,15.558
			c0,8.587-6.967,15.554-15.564,15.554h-67.445v27.462h68.536c8.596,0,15.557,6.964,15.557,15.549
			c0,8.592-6.961,15.556-15.557,15.556h-68.536v27.455h69.626c8.59,0,15.557,6.963,15.557,15.556
			c0,8.594-6.967,15.557-15.557,15.557h-69.536c0.938,15.286,13.594,27.401,29.107,27.401h12.042l16.982,218.632
			c0.356,10.834,7.883,19.828,17.994,22.417c0.004,0.01,0.053,0.087,0.066,0.118c1.311,14.627,13.59,26.097,28.553,26.097
			c14.969,0,27.24-11.47,28.552-26.095c0.017-0.032,0.062-0.111,0.065-0.121c10.119-2.59,17.64-11.583,18.003-22.417l16.976-218.632
			h12.04c15.515,0,28.172-12.116,29.107-27.401H271.06c-8.588,0-15.557-6.962-15.557-15.557c0-8.593,6.969-15.556,15.557-15.556
			h69.628v-27.455H272.15c-8.596,0-15.555-6.964-15.555-15.556C256.596,94.333,263.555,87.369,272.15,87.369z M267.441,263.751
			c0,20.626-14.138,37.347-31.588,37.347c-17.443,0-31.588-16.721-31.588-37.347s14.145-37.347,31.588-37.347
			C253.304,226.404,267.441,243.125,267.441,263.751z"/>
	</g>
</g>
<g>
</g>
<g>
</g>
<g>
</g>
<g>
</g>
<g>
</g>
<g>
</g>
<g>
</g>
<g>
</g>
<g>
</g>
<g>
</g>
<g>
</g>
<g>
</g>
<g>
</g>
<g>
</g>
<g>
</g>
</svg>
