<?xml version="1.0" encoding="iso-8859-1"?>
<!-- Generator: Adobe Illustrator 16.0.0, SVG Export Plug-In . SVG Version: 6.00 Build 0)  -->
<!DOCTYPE svg PUBLIC "-//W3C//DTD SVG 1.1//EN" "http://www.w3.org/Graphics/SVG/1.1/DTD/svg11.dtd">
<svg version="1.1" id="Capa_1" xmlns="http://www.w3.org/2000/svg" xmlns:xlink="http://www.w3.org/1999/xlink" x="0px" y="0px"
	 width="457.213px" height="457.213px" viewBox="0 0 457.213 457.213" style="enable-background:new 0 0 457.213 457.213;"
	 xml:space="preserve">
<g>
	<g>
		<path d="M436.142,207.536C436.142,93.101,343.042,0,228.608,0C114.171,0,21.071,93.101,21.071,207.536
			c0,77.418,42.641,145.024,105.64,180.69c-9.118,7.047-15.011,18.057-15.011,30.471c0,21.272,17.242,38.516,38.516,38.516
			c21.272,0,38.515-17.243,38.515-38.516c0-2.619-0.268-5.178-0.764-7.647c13.149,2.621,26.734,4.021,40.642,4.021
			c12.6,0,24.924-1.19,36.912-3.354c-0.414,2.269-0.662,4.592-0.662,6.98c0,21.272,17.244,38.516,38.516,38.516
			c21.273,0,38.516-17.243,38.516-38.516c0-11.716-5.244-22.188-13.496-29.252C392.56,354.105,436.142,285.824,436.142,207.536z
			 M228.608,378.822c-94.449,0-171.285-76.84-171.285-171.287c0-94.446,76.836-171.284,171.285-171.284
			c94.446,0,171.286,76.838,171.286,171.284C399.894,301.982,323.054,378.822,228.608,378.822z"/>
		<path d="M228.608,76.981c-73.077,0-132.316,59.242-132.316,132.317c0,73.076,59.239,132.315,132.316,132.315
			c73.075,0,132.313-59.24,132.313-132.315C360.921,136.223,301.683,76.981,228.608,76.981z M197.934,112.754
			c13.161-5.315,28.141,1.042,33.463,14.203c5.313,13.157-1.045,28.139-14.208,33.457c-13.161,5.318-28.143-1.043-33.456-14.202
			C178.414,133.049,184.773,118.071,197.934,112.754z M153.526,231.38c-14.197,0-25.703-11.504-25.703-25.698
			c0-14.198,11.506-25.707,25.703-25.707c14.191,0,25.699,11.509,25.699,25.707C179.225,219.876,167.717,231.38,153.526,231.38z
			 M228.198,291.911c-4.151,13.577-18.518,21.215-32.091,17.063c-13.575-4.15-21.218-18.518-17.067-32.095
			c4.148-13.571,18.519-21.211,32.096-17.062C224.708,263.971,232.347,278.339,228.198,291.911z M232.183,234.999
			c-14.193,0-25.7-11.504-25.7-25.702c0-14.194,11.506-25.702,25.7-25.702c14.194,0,25.705,11.508,25.705,25.702
			C257.888,223.494,246.377,234.999,232.183,234.999z M314.853,273.878c-7.939,11.767-23.914,14.875-35.686,6.938
			c-11.766-7.937-14.867-23.914-6.932-35.683c7.938-11.768,23.914-14.872,35.68-6.934
			C319.687,246.139,322.79,262.111,314.853,273.878z M312.208,186.212c-11.029,8.93-27.219,7.228-36.15-3.805
			c-8.935-11.031-7.23-27.217,3.801-36.147c11.033-8.934,27.217-7.233,36.146,3.798
			C324.937,161.092,323.239,177.275,312.208,186.212z"/>
	</g>
</g>
<g>
</g>
<g>
</g>
<g>
</g>
<g>
</g>
<g>
</g>
<g>
</g>
<g>
</g>
<g>
</g>
<g>
</g>
<g>
</g>
<g>
</g>
<g>
</g>
<g>
</g>
<g>
</g>
<g>
</g>
</svg>
