<?xml version="1.0" encoding="iso-8859-1"?>
<!-- Generator: Adobe Illustrator 16.0.0, SVG Export Plug-In . SVG Version: 6.00 Build 0)  -->
<!DOCTYPE svg PUBLIC "-//W3C//DTD SVG 1.1//EN" "http://www.w3.org/Graphics/SVG/1.1/DTD/svg11.dtd">
<svg version="1.1" id="Capa_1" xmlns="http://www.w3.org/2000/svg" xmlns:xlink="http://www.w3.org/1999/xlink" x="0px" y="0px"
	 width="471.989px" height="471.989px" viewBox="0 0 471.989 471.989" style="enable-background:new 0 0 471.989 471.989;"
	 xml:space="preserve">
<g>
	<path d="M384.051,166.404c-0.493-12.054-1.614-13.661-5.2-17.24c-7.454-7.445-19.81-7.267-27.263,0.186
		c-4.167,4.167-6,9.786-5.509,15.23c0.021,0.631,0,15.317-0.037,26.246h-15.236V94.774C330.806,42.515,288.287,0,236.025,0h-0.009
		c-0.003,0-0.006,0-0.006,0c-52.262,0-94.784,42.515-94.784,94.774v96.052H125.99c-0.037-10.929-0.056-25.615-0.037-26.246
		c0.493-5.444-1.341-11.063-5.509-15.23c-7.453-7.453-19.535-7.453-26.992,0c-3.579,3.577-4.978,5-5.473,17.054
		c0,0-0.069,56.326-0.026,62.329c0.037,11.621,0.067,20.298,0.067,20.616c0,75.127,56.294,137.309,128.905,146.692v37.78h-52.779
		h-0.019c-10.543,0-19.084,8.541-19.084,19.083c0,10.538,8.542,19.084,19.084,19.084h0.019h143.743h0.019
		c10.54,0,19.085-8.546,19.085-19.084c0-10.542-8.545-19.083-19.085-19.083h-0.019h-52.783v-37.78
		c72.611-9.384,128.91-71.565,128.91-146.691C384.016,249.03,384.051,166.404,384.051,166.404z M292.619,94.775v96.052H179.413
		V94.775c0-31.208,25.394-56.605,56.603-56.605C267.227,38.169,292.619,63.566,292.619,94.775z M179.413,249.99v-20.999h113.207
		v20.999c0,31.212-25.393,56.604-56.604,56.609C204.807,306.594,179.413,281.202,179.413,249.99z M141.226,228.991v20.999
		c0,52.256,42.522,94.775,94.784,94.775c0,0,0.002,0,0.006,0h0.009c52.262,0,94.781-42.52,94.781-94.775v-20.999l15.007-0.04
		c0,0-0.04,20.286-0.04,20.398c0,60.527-49.233,109.773-109.757,109.794c-60.521-0.021-109.993-49.231-109.993-109.759
		c0-0.111,0.095-20.395,0.095-20.395L141.226,228.991L141.226,228.991z"/>
</g>
<g>
</g>
<g>
</g>
<g>
</g>
<g>
</g>
<g>
</g>
<g>
</g>
<g>
</g>
<g>
</g>
<g>
</g>
<g>
</g>
<g>
</g>
<g>
</g>
<g>
</g>
<g>
</g>
<g>
</g>
</svg>
