<?xml version="1.0" encoding="iso-8859-1"?>
<!-- Generator: Adobe Illustrator 16.0.0, SVG Export Plug-In . SVG Version: 6.00 Build 0)  -->
<!DOCTYPE svg PUBLIC "-//W3C//DTD SVG 1.1//EN" "http://www.w3.org/Graphics/SVG/1.1/DTD/svg11.dtd">
<svg version="1.1" id="Capa_1" xmlns="http://www.w3.org/2000/svg" xmlns:xlink="http://www.w3.org/1999/xlink" x="0px" y="0px"
	 width="478.844px" height="478.845px" viewBox="0 0 478.844 478.845" style="enable-background:new 0 0 478.844 478.845;"
	 xml:space="preserve">
<g>
	<g>
		<g>
			<path d="M239.934,92.17c-8.399,0-15.212,6.806-15.212,15.202c0,8.403,6.813,15.216,15.212,15.216s15.211-6.813,15.211-15.216
				C255.145,98.975,248.333,92.17,239.934,92.17z"/>
			<path d="M239.934,144.729c-8.399,0-15.212,6.812-15.212,15.216c0,8.396,6.813,15.204,15.212,15.204s15.211-6.808,15.211-15.204
				C255.145,151.54,248.333,144.729,239.934,144.729z"/>
			<path d="M239.934,200.896c-8.399,0-15.212,6.809-15.212,15.211c0,8.397,6.813,15.209,15.212,15.209s15.211-6.812,15.211-15.209
				C255.145,207.706,248.333,200.896,239.934,200.896z"/>
			<path d="M239.934,257.062c-8.399,0-15.212,6.81-15.212,15.212c0,8.396,6.813,15.209,15.212,15.209s15.211-6.812,15.211-15.209
				C255.145,263.871,248.333,257.062,239.934,257.062z"/>
			<path d="M305.764,0h-132.67c-31.038,0-56.293,26.617-56.293,59.35v257.176c0,32.723,25.255,59.348,56.293,59.348h44.732v59.765
				h-59.763c-11.936,0-21.604,9.673-21.604,21.604c0,11.934,9.669,21.604,21.604,21.604h162.728c11.933,0,21.604-9.67,21.604-21.604
				c0-11.931-9.672-21.604-21.604-21.604h-59.758v-59.765h44.73c31.039,0,56.279-26.625,56.279-59.348V59.35
				C362.043,26.617,336.803,0,305.764,0z M305.764,332.666h-132.67c-7.096,0-13.086-7.393-13.086-16.141v-3.841h44.545
				c9.547,0,17.282-7.737,17.282-17.282c0-9.543-7.735-17.279-17.282-17.279h-44.545v-18.715h43.827
				c9.547,0,17.282-7.74,17.282-17.283c0-9.545-7.735-17.286-17.282-17.286h-43.827v-18.722h43.109
				c9.539,0,17.282-7.741,17.282-17.283c0-9.541-7.743-17.282-17.282-17.282h-43.109V152.83h42.393
				c9.538,0,17.282-7.741,17.282-17.282c0-9.545-7.744-17.283-17.282-17.283h-42.393V99.54h41.667
				c9.546,0,17.283-7.737,17.283-17.283c0-9.542-7.737-17.279-17.283-17.279h-41.667v-5.629c0-8.751,5.99-16.151,13.086-16.151
				h132.67c7.09,0,13.08,7.399,13.08,16.151v5.815h-43.001c-9.536,0-17.274,7.737-17.274,17.283c0,9.542,7.738,17.279,17.274,17.279
				h43.001v18.725h-42.273c-9.547,0-17.282,7.738-17.282,17.279c0,9.549,7.735,17.283,17.282,17.283h42.273v18.718h-41.558
				c-9.546,0-17.282,7.738-17.282,17.283c0,9.542,7.736,17.282,17.282,17.282h41.558v18.722h-40.84
				c-9.545,0-17.282,7.737-17.282,17.282c0,9.542,7.737,17.28,17.282,17.28h40.84v18.725h-40.115
				c-9.552,0-17.289,7.737-17.289,17.287c0,9.542,7.737,17.279,17.289,17.279h40.115v3.654
				C318.844,325.275,312.854,332.666,305.764,332.666z"/>
		</g>
	</g>
</g>
<g>
</g>
<g>
</g>
<g>
</g>
<g>
</g>
<g>
</g>
<g>
</g>
<g>
</g>
<g>
</g>
<g>
</g>
<g>
</g>
<g>
</g>
<g>
</g>
<g>
</g>
<g>
</g>
<g>
</g>
</svg>
