<?xml version="1.0" encoding="iso-8859-1"?>
<!-- Generator: Adobe Illustrator 16.0.0, SVG Export Plug-In . SVG Version: 6.00 Build 0)  -->
<!DOCTYPE svg PUBLIC "-//W3C//DTD SVG 1.1//EN" "http://www.w3.org/Graphics/SVG/1.1/DTD/svg11.dtd">
<svg version="1.1" id="Capa_1" xmlns="http://www.w3.org/2000/svg" xmlns:xlink="http://www.w3.org/1999/xlink" x="0px" y="0px"
	 width="488.143px" height="488.143px" viewBox="0 0 488.143 488.143" style="enable-background:new 0 0 488.143 488.143;"
	 xml:space="preserve">
<g>
	<path d="M378.702,123.405h-52.104V81.584C326.599,36.528,290.072,0,245.013,0c-0.315,0-1.571,0-1.887,0
		c-45.057,0-81.586,36.528-81.586,81.584v41.821h-52.102c-11.362,0-22.98,9.037-22.98,20.396c0,1.315,0.38,92.342,0.384,93.415
		c0,79.861,59.012,146.189,135.72,157.692v52.098h-56.907c-11.358,0-20.569,9.207-20.569,20.568
		c0,11.359,9.211,20.568,20.569,20.568h156.83c11.359,0,20.568-9.209,20.568-20.568c0-11.361-9.209-20.568-20.568-20.568H265.58
		v-52.098c76.706-11.503,135.72-77.832,135.72-157.692c0-0.995,0.385-92.1,0.385-93.415
		C401.683,132.442,390.065,123.405,378.702,123.405z M360.163,237.216c0,64.499-51.877,117.074-116.094,118.278
		c-64.217-1.204-116.093-53.779-116.093-118.278c0-0.249-0.158-46.806-0.243-72.675h33.807v84.33
		c0,45.055,36.529,81.582,81.586,81.582c0.315,0,1.571,0,1.887,0c45.059,0,81.585-36.527,81.585-81.582v-84.33h33.809
		C360.321,190.411,360.163,236.967,360.163,237.216z"/>
</g>
<g>
</g>
<g>
</g>
<g>
</g>
<g>
</g>
<g>
</g>
<g>
</g>
<g>
</g>
<g>
</g>
<g>
</g>
<g>
</g>
<g>
</g>
<g>
</g>
<g>
</g>
<g>
</g>
<g>
</g>
</svg>
