<?xml version="1.0" encoding="iso-8859-1"?>
<!-- Generator: Adobe Illustrator 16.0.0, SVG Export Plug-In . SVG Version: 6.00 Build 0)  -->
<!DOCTYPE svg PUBLIC "-//W3C//DTD SVG 1.1//EN" "http://www.w3.org/Graphics/SVG/1.1/DTD/svg11.dtd">
<svg version="1.1" id="Capa_1" xmlns="http://www.w3.org/2000/svg" xmlns:xlink="http://www.w3.org/1999/xlink" x="0px" y="0px"
	 width="476.551px" height="476.551px" viewBox="0 0 476.551 476.551" style="enable-background:new 0 0 476.551 476.551;"
	 xml:space="preserve">
<g>
	<g>
		<g>
			<path d="M393.926,309.484c0,0-0.293-86.927-0.293-87.611c0-79.073-59.53-144.464-136.116-153.817V18.899
				C257.517,8.459,249.054,0,238.621,0c-0.121,0-0.23,0.027-0.345,0.027c-0.114,0-0.223-0.027-0.344-0.027
				c-10.436,0-18.899,8.459-18.899,18.899v49.157C142.448,77.409,82.92,142.8,82.92,221.873c-0.003,0.686-0.295,87.612-0.295,87.612
				h0.153c0.396,9.655,1.745,12.734,6.126,17.121c3.689,3.688,8.525,5.536,13.365,5.536c4.836,0,9.67-1.848,13.362-5.536
				c4.14-4.143,5.957-9.725,5.454-15.125c-0.102-3.574-0.076-18.716-0.002-35.562h23.294v106.775
				c0,51.757,42.11,93.857,93.864,93.857c51.753,0,93.863-42.101,93.863-93.857v-33.095c0.025,0,0.045,0,0.074,0.009v-73.689h23.294
				c0.072,16.847,0.101,31.986-0.006,35.562c-0.501,5.4,1.316,10.983,5.456,15.125c3.691,3.688,8.525,5.536,13.362,5.536
				c4.84,0,9.673-1.848,13.364-5.536c4.377-4.387,5.73-7.466,6.123-17.121H393.926z M238.24,438.757
				c-13.938,0-26.673-5.139-36.49-13.583c0.025,0,0.043,0,0.067,0c-5.216-4.495-9.625-9.908-12.909-16.02l18.482-0.167
				c8.352,0,15.119-6.768,15.119-15.116s-6.768-15.119-15.119-15.119h-25.143v-16.219l24.515-0.154
				c8.348,0,15.117-6.77,15.117-15.119c0-8.348-6.769-15.117-15.117-15.117h-24.515v-16.227h23.286c1.217,0,2.382-0.178,3.517-0.453
				c6.951-1.355,12.198-7.475,12.198-14.821c0-8.351-6.769-15.12-15.116-15.12h-23.884v-16.219h23.914
				c8.352,0,15.123-6.77,15.123-15.12c0-7.378-5.299-13.507-12.297-14.838c-1.123-0.263-2.279-0.44-3.487-0.44h-23.252l0.329-16.379
				h22.296c8.351,0,15.121-6.771,15.121-15.123c0-8.348-6.77-15.119-15.121-15.119h-8.92c10.285-11.832,25.411-19.362,42.288-19.362
				c16.956,0,32.147,7.59,42.433,19.525h-10.913c-8.352,0-15.121,6.771-15.121,15.12c0,8.347,6.77,15.119,15.121,15.119h24.167
				c0.232,2.065,0.378,16.22,0.378,16.22h-23.253c-1.207,0-2.364,0.178-3.489,0.44c-6.996,1.331-12.291,7.46-12.291,14.838
				c0,8.351,6.769,15.12,15.116,15.12h23.917v16.219h-23.885c-8.348,0-15.12,6.77-15.12,15.12c0,7.347,5.251,13.466,12.201,14.821
				c1.135,0.275,2.301,0.453,3.517,0.453h23.287v16.227h-24.516c-8.348,0-15.119,6.77-15.119,15.117
				c0,8.352,6.771,15.119,15.119,15.119l24.516,0.154v16.219h-25.143c-8.352,0-15.121,6.771-15.121,15.119
				s6.77,15.116,15.121,15.116l18.481,0.167c-1.077,1.999-4.161,6.563-4.453,6.95C272.966,429.837,256.632,438.757,238.24,438.757z
				 M332.177,238.119l-0.074-9.14c0-51.757-42.109-93.858-93.863-93.858c-40.9,0-75.756,26.303-88.587,62.876
				c-4.344,10.669-5.277,27.359-5.277,30.982v9.14h-23.087c0.049-7.786,0.117-16.128,0.117-16.247
				c0-64.512,52.397-117.017,116.87-117.207c64.47,0.189,116.87,52.695,116.87,117.207c0,0.118,0.066,8.037,0.118,16.247H332.177z"
				/>
			<path d="M238.34,262.054c-0.021,0-0.04,0.006-0.064,0.006s-0.042-0.006-0.066-0.006c-7.349,0-13.309,5.957-13.309,13.308
				c0,7.35,5.959,13.306,13.309,13.306c0.023,0,0.042-0.007,0.066-0.007s0.043,0.007,0.064,0.007
				c7.352,0,13.309-5.957,13.309-13.306C251.648,268.011,245.691,262.054,238.34,262.054z"/>
			<path d="M238.34,311.189c-0.021,0-0.04,0.006-0.064,0.006s-0.042-0.006-0.066-0.006c-7.349,0-13.309,5.957-13.309,13.309
				c0,7.349,5.959,13.306,13.309,13.306c0.023,0,0.042-0.006,0.066-0.006s0.043,0.006,0.064,0.006
				c7.352,0,13.309-5.957,13.309-13.306C251.648,317.146,245.691,311.189,238.34,311.189z"/>
			<path d="M238.34,360.326c-0.021,0-0.04,0.009-0.064,0.009s-0.042-0.009-0.066-0.009c-7.349,0-13.309,5.959-13.309,13.309
				c0,7.349,5.959,13.305,13.309,13.305c0.023,0,0.042-0.006,0.066-0.006s0.043,0.006,0.064,0.006
				c7.352,0,13.309-5.956,13.309-13.305C251.648,366.285,245.691,360.326,238.34,360.326z"/>
			<path d="M238.596,216.131c-0.019,0-0.039,0.006-0.061,0.006c-0.023,0-0.045-0.006-0.067-0.006
				c-7.348,0-13.308,5.957-13.308,13.309c0,7.348,5.959,13.304,13.308,13.304c0.021,0,0.043-0.006,0.067-0.006
				c0.022,0,0.042,0.006,0.061,0.006c7.354,0,13.309-5.957,13.309-13.304C251.904,222.088,245.951,216.131,238.596,216.131z"/>
		</g>
	</g>
</g>
<g>
</g>
<g>
</g>
<g>
</g>
<g>
</g>
<g>
</g>
<g>
</g>
<g>
</g>
<g>
</g>
<g>
</g>
<g>
</g>
<g>
</g>
<g>
</g>
<g>
</g>
<g>
</g>
<g>
</g>
</svg>
