<?xml version="1.0" encoding="iso-8859-1"?>
<!-- Generator: Adobe Illustrator 16.0.0, SVG Export Plug-In . SVG Version: 6.00 Build 0)  -->
<!DOCTYPE svg PUBLIC "-//W3C//DTD SVG 1.1//EN" "http://www.w3.org/Graphics/SVG/1.1/DTD/svg11.dtd">
<svg version="1.1" id="Capa_1" xmlns="http://www.w3.org/2000/svg" xmlns:xlink="http://www.w3.org/1999/xlink" x="0px" y="0px"
	 width="481.403px" height="481.402px" viewBox="0 0 481.403 481.402" style="enable-background:new 0 0 481.403 481.402;"
	 xml:space="preserve">
<g>
	<path d="M381.125,172.831h-33.128v-65.532C347.997,48.138,299.864,0,240.701,0c-59.164,0-107.297,48.138-107.297,107.299v65.532
		h-33.127c-11.931,0-21.603,9.67-21.603,21.604c0,11.928,9.672,21.598,21.603,21.598h33.127v66.971
		c0,51.775,36.85,95.092,85.693,105.117v50.078h-59.771c-11.932,0-21.604,9.67-21.604,21.605c0,11.928,9.672,21.598,21.604,21.598
		h162.75c11.932,0,21.604-9.67,21.604-21.598c0-11.936-9.672-21.605-21.604-21.605h-59.771v-50.078
		c48.844-10.025,85.692-53.342,85.692-105.117v-66.971h33.127c11.932,0,21.603-9.67,21.603-21.598
		C402.727,182.501,393.056,172.831,381.125,172.831z M304.792,148.347h-35.276c-8.353,0-15.122-6.775-15.122-15.123
		c0-8.354,6.771-15.124,15.122-15.124h35.276V148.347z M269.899,100.5c-8.35,0-15.121-6.778-15.121-15.123
		c0-8.356,6.771-15.124,15.121-15.124h22.012c6.62,8.627,11.081,18.964,12.614,30.247H269.899z M215.148,70.577
		c8.355,0,15.125,6.765,15.125,15.124c0,8.345-6.77,15.12-15.125,15.12h-38.205c1.126-11.183,5.173-21.505,11.317-30.244H215.148z
		 M215.148,120.264c8.355,0,15.125,6.765,15.125,15.12c0,8.345-6.77,15.124-15.125,15.124h-38.537v-30.244H215.148z
		 M304.792,283.004c0,35.344-28.752,64.098-64.09,64.098c-35.337,0-64.091-28.753-64.091-64.098v-66.971h128.182V283.004z"/>
</g>
<g>
</g>
<g>
</g>
<g>
</g>
<g>
</g>
<g>
</g>
<g>
</g>
<g>
</g>
<g>
</g>
<g>
</g>
<g>
</g>
<g>
</g>
<g>
</g>
<g>
</g>
<g>
</g>
<g>
</g>
</svg>
