<?xml version="1.0" encoding="iso-8859-1"?>
<!-- Generator: Adobe Illustrator 16.0.0, SVG Export Plug-In . SVG Version: 6.00 Build 0)  -->
<!DOCTYPE svg PUBLIC "-//W3C//DTD SVG 1.1//EN" "http://www.w3.org/Graphics/SVG/1.1/DTD/svg11.dtd">
<svg version="1.1" id="Capa_1" xmlns="http://www.w3.org/2000/svg" xmlns:xlink="http://www.w3.org/1999/xlink" x="0px" y="0px"
	 width="481.706px" height="481.706px" viewBox="0 0 481.706 481.706" style="enable-background:new 0 0 481.706 481.706;"
	 xml:space="preserve">
<g>
	<g>
		<path d="M240.854,0c-68.746,0-129.049,52.062-129.049,111.411v178.504c0,54.215,50.336,102.327,111.447,110.247v46.34h-48.699
			c-9.719,0-17.601,7.882-17.601,17.602c0,9.723,7.882,17.603,17.601,17.603h132.602c9.722,0,17.604-7.88,17.604-17.603
			c0-9.72-7.883-17.602-17.604-17.602h-48.699v-46.34c61.111-7.92,111.446-56.032,111.446-110.247V111.411
			C369.902,52.062,309.6,0,240.854,0z M334.699,289.915c0,35.976-40.134,76.204-93.846,76.204c-53.71,0-93.847-40.229-93.847-76.204
			V111.411c0-35.976,40.137-76.207,93.847-76.207c53.712,0,93.846,40.23,93.846,76.207V289.915z"/>
		<path d="M240.854,59.969c-38.559,0-69.822,31.255-69.822,69.818v70.938v70.939c0,38.562,31.263,69.818,69.822,69.818
			c38.564,0,69.821-31.256,69.821-69.818v-70.939v-70.938C310.675,91.224,279.418,59.969,240.854,59.969z M240.854,77.571
			c10.938,0,19.803,8.865,19.803,19.801c0,10.933-8.865,19.803-19.803,19.803c-10.936,0-19.803-8.87-19.803-19.803
			C221.051,86.436,229.917,77.571,240.854,77.571z M260.656,201.109c0,10.942-8.865,19.8-19.803,19.8
			c-10.936,0-19.803-8.857-19.803-19.8c0-0.129,0.019-0.253,0.022-0.383c-0.003-0.13-0.022-0.253-0.022-0.383
			c0-10.942,8.868-19.8,19.803-19.8c10.938,0,19.803,8.858,19.803,19.8c0,0.13-0.017,0.253-0.02,0.383
			C260.64,200.856,260.656,200.979,260.656,201.109z M208.979,131.881c10.933,0,19.8,8.861,19.8,19.8c0,10.93-8.867,19.8-19.8,19.8
			c-10.937,0-19.804-8.87-19.804-19.8C189.175,140.742,198.042,131.881,208.979,131.881z M189.175,249.771
			c0-10.93,8.867-19.8,19.804-19.8c10.933,0,19.8,8.871,19.8,19.8c0,10.938-8.867,19.801-19.8,19.801
			C198.042,269.572,189.175,260.71,189.175,249.771z M240.854,323.881c-10.936,0-19.803-8.865-19.803-19.8
			c0-10.933,8.868-19.804,19.803-19.804c10.938,0,19.803,8.871,19.803,19.804C260.656,315.018,251.789,323.881,240.854,323.881z
			 M273.605,269.754c-10.935,0-19.802-8.861-19.802-19.8c0-10.93,8.867-19.801,19.802-19.801c10.938,0,19.805,8.871,19.805,19.801
			C293.408,260.893,284.541,269.754,273.605,269.754z M273.605,171.299c-10.935,0-19.802-8.871-19.802-19.801
			c0-10.938,8.867-19.8,19.802-19.8c10.938,0,19.805,8.861,19.805,19.8C293.408,162.428,284.541,171.299,273.605,171.299z"/>
	</g>
</g>
<g>
</g>
<g>
</g>
<g>
</g>
<g>
</g>
<g>
</g>
<g>
</g>
<g>
</g>
<g>
</g>
<g>
</g>
<g>
</g>
<g>
</g>
<g>
</g>
<g>
</g>
<g>
</g>
<g>
</g>
</svg>
