<?xml version="1.0" encoding="iso-8859-1"?>
<!-- Generator: Adobe Illustrator 16.0.0, SVG Export Plug-In . SVG Version: 6.00 Build 0)  -->
<!DOCTYPE svg PUBLIC "-//W3C//DTD SVG 1.1//EN" "http://www.w3.org/Graphics/SVG/1.1/DTD/svg11.dtd">
<svg version="1.1" id="Capa_1" xmlns="http://www.w3.org/2000/svg" xmlns:xlink="http://www.w3.org/1999/xlink" x="0px" y="0px"
	 width="487.083px" height="487.083px" viewBox="0 0 487.083 487.083" style="enable-background:new 0 0 487.083 487.083;"
	 xml:space="preserve">
<g>
	<g>
		<ellipse cx="243.843" cy="251.031" rx="16.345" ry="19.326"/>
		<path d="M336.31,149.145c6.814-13.787,10.646-29.316,10.646-45.732C346.957,46.298,300.66,0,243.54,0
			c-57.114,0-103.419,46.298-103.419,103.413c0,16.426,3.86,31.937,10.677,45.729c-9.347,1.588-16.472,9.714-16.472,19.518
			c0,10.937,8.868,19.81,19.812,19.81h17.483c0,0,19.563,248.505,19.567,248.506c1.398,11.023,9.492,19.933,20.082,22.554
			c3.987,14.985,13.213,27.553,32.942,27.553c19.665,0,28.89-12.487,32.898-27.409c10.802-2.425,19.116-11.373,20.614-22.496
			c0.003-0.002,19.051-248.502,19.051-248.502l16.162,0.061c10.951,0,19.82-9.141,19.82-20.078
			C352.757,158.865,345.646,150.748,336.31,149.145z M243.843,291.627c-18.966,0-34.337-18.175-34.337-40.597
			c0-22.422,15.371-40.597,34.337-40.597c18.965,0,34.338,18.174,34.338,40.597C278.181,273.453,262.808,291.627,243.843,291.627z"
			/>
	</g>
</g>
<g>
</g>
<g>
</g>
<g>
</g>
<g>
</g>
<g>
</g>
<g>
</g>
<g>
</g>
<g>
</g>
<g>
</g>
<g>
</g>
<g>
</g>
<g>
</g>
<g>
</g>
<g>
</g>
<g>
</g>
</svg>
