<?xml version="1.0" encoding="iso-8859-1"?>
<!-- Generator: Adobe Illustrator 16.0.0, SVG Export Plug-In . SVG Version: 6.00 Build 0)  -->
<!DOCTYPE svg PUBLIC "-//W3C//DTD SVG 1.1//EN" "http://www.w3.org/Graphics/SVG/1.1/DTD/svg11.dtd">
<svg version="1.1" id="Capa_1" xmlns="http://www.w3.org/2000/svg" xmlns:xlink="http://www.w3.org/1999/xlink" x="0px" y="0px"
	 width="472.058px" height="472.058px" viewBox="0 0 472.058 472.058" style="enable-background:new 0 0 472.058 472.058;"
	 xml:space="preserve">
<g>
	<path d="M378.038,188.677l29.257,29.257l9.603-9.606l-29.624-29.621c-4.895-4.897-4.896-12.832,0-17.729
		c4.893-4.896,12.832-4.896,17.728,0l29.624,29.622l9.604-9.6l-29.997-29.991c-4.894-4.897-4.894-12.833-0.002-17.726
		c4.891-4.895,12.83-4.894,17.729-0.001l29.992,29.993l2.798-2.794c9.576-9.58,9.771-24.933,0.413-34.285l-64.769-64.769
		c-9.352-9.351-24.705-9.162-34.281,0.418l-2.702,2.703l30.603,30.604c4.895,4.894,4.895,12.833,0.002,17.725
		c-4.896,4.895-12.83,4.895-17.729,0.001l-30.604-30.606l-9.6,9.604l30.972,30.974c4.895,4.896,4.895,12.833,0,17.725
		c-4.897,4.894-12.83,4.894-17.726,0l-30.975-30.975l-9.601,9.603l31.347,31.345c4.891,4.891,4.891,12.831-0.009,17.728
		c-4.896,4.895-12.83,4.894-17.722,0l-31.344-31.345l-9.602,9.6l31.713,31.715c4.894,4.894,4.894,12.83-0.003,17.727
		c-4.891,4.895-12.828,4.895-17.727-0.004l-31.71-31.71l-1.039,1.037c-7.987,7.986-9.421,19.963-4.271,29.149
		c-0.046,0.043-0.099,0.079-0.143,0.125L134.554,330.13c-9.229,9.229-10.885,28.455,0.407,39.744
		c-0.011,0.01,0.184,0.219,0.541,0.585c-11.232,11.207-14.69,14.317-19.433,19.061c-5.437,5.436-11.937,4.354-15.226-4.79
		c-4.798-13.328-12.821-35.633-54.324-47.111c-12.966-3.582-20.543-8.934-22.535-15.889c-3.947-13.848,11.822-35.02,17.645-41.328
		c4.393-4.727,4.126-12.113-0.604-16.514c-4.724-4.396-12.124-4.125-16.513,0.604c-3.216,3.464-31.214,34.669-23.015,63.584
		c1.805,6.38,5.109,11.97,9.894,16.753c6.734,6.733,16.39,11.86,28.892,15.313c29.844,8.25,34.28,20.58,38.567,32.5
		c3.793,10.55,10.202,27.425,36.06,24.558c14.917-1.659,31.546-16.649,41.162-26.177c0.238,0.229,0.384,0.364,0.392,0.355
		c11.289,11.291,30.517,9.635,39.746,0.406l135.563-123.691c0.021-0.021,0.037-0.048,0.06-0.07
		c9.229,5.358,21.386,3.986,29.462-4.09l0.947-0.942l-28.892-28.889c-4.892-4.895-4.892-12.831,0-17.727
		c4.896-4.894,12.833-4.894,17.726,0.004l28.888,28.887l9.604-9.604l-29.253-29.257c-4.898-4.897-4.898-12.833,0-17.729
		C365.209,183.781,373.145,183.785,378.038,188.677z M326.48,185.583c4.308-4.307,11.296-4.309,15.603,0
		c4.312,4.31,4.314,11.293,0,15.605c-4.307,4.308-11.293,4.304-15.603-0.008C322.173,196.875,322.17,189.894,326.48,185.583z
		 M355.285,172.381c-4.305-4.31-4.311-11.296,0-15.603c4.31-4.309,11.297-4.309,15.601,0c4.312,4.311,4.312,11.296,0.003,15.606
		C366.579,176.691,359.598,176.69,355.285,172.381z M399.695,127.972c4.311,4.313,4.307,11.298,0,15.603
		c-4.31,4.313-11.296,4.311-15.604,0c-4.31-4.306-4.31-11.293,0-15.603C388.399,123.665,395.386,123.663,399.695,127.972z
		 M244.628,281.923c-0.034-0.037-0.064-0.078-0.098-0.113c-0.036-0.033-0.077-0.063-0.115-0.101
		c-6.84-6.843-5.76-19.022,2.411-27.198c8.186-8.18,20.358-9.258,27.2-2.41c0.037,0.035,0.066,0.076,0.1,0.111
		c0.035,0.035,0.078,0.063,0.113,0.098c6.845,6.842,5.77,19.019-2.412,27.201C263.654,287.683,251.475,288.765,244.628,281.923z"/>
</g>
<g>
</g>
<g>
</g>
<g>
</g>
<g>
</g>
<g>
</g>
<g>
</g>
<g>
</g>
<g>
</g>
<g>
</g>
<g>
</g>
<g>
</g>
<g>
</g>
<g>
</g>
<g>
</g>
<g>
</g>
</svg>
